<?xml version="1.0" encoding="UTF-8" standalone="no"?>
<!-- Created with Inkscape (http://www.inkscape.org/) -->

<svg
   width="160"
   height="60"
   viewBox="0 0 42.333333 15.875001"
   version="1.1"
   id="svg204"
   inkscape:version="1.1.1 (3bf5ae0d25, 2021-09-20)"
   sodipodi:docname="logo-n-otim.svg"
   xmlns:inkscape="http://www.inkscape.org/namespaces/inkscape"
   xmlns:sodipodi="http://sodipodi.sourceforge.net/DTD/sodipodi-0.dtd"
   xmlns="http://www.w3.org/2000/svg"
   xmlns:svg="http://www.w3.org/2000/svg">
  <sodipodi:namedview
     id="namedview206"
     pagecolor="#ffffff"
     bordercolor="#666666"
     borderopacity="1.0"
     inkscape:pageshadow="2"
     inkscape:pageopacity="0.0"
     inkscape:pagecheckerboard="0"
     inkscape:document-units="mm"
     showgrid="false"
     units="px"
     inkscape:zoom="2.6205012"
     inkscape:cx="206.63986"
     inkscape:cy="0.19080319"
     inkscape:window-width="1366"
     inkscape:window-height="705"
     inkscape:window-x="-8"
     inkscape:window-y="-8"
     inkscape:window-maximized="1"
     inkscape:current-layer="layer1" />
  <defs
     id="defs201" />
  <g
     inkscape:label="Camada 1"
     inkscape:groupmode="layer"
     id="layer1">
    <g
       id="g7855"
       transform="matrix(1.642223,0,0,1.642223,-1.0517611,-7.4550933)">
      <path
         style="fill:none;stroke:#ffc2bb;stroke-width:0.264583px;stroke-linecap:butt;stroke-linejoin:miter;stroke-opacity:1"
         d="M 2.2969922,12.065519 C 1.8214041,11.473344 1.632524,10.651802 1.4892587,9.7937687 1.4175818,8.4700268 1.4178367,6.9615746 1.9436087,5.6288929 3.7045273,5.51758 4.857969,5.8922486 5.9570347,6.310418 6.6880432,6.6638014 7.3024126,7.0171848 7.9006434,7.3705682"
         id="path1255"
         sodipodi:nodetypes="ccccc" />
      <path
         style="fill:#ffc2bb;fill-opacity:1;stroke:#ffc2bb;stroke-width:0.264583px;stroke-linecap:butt;stroke-linejoin:miter;stroke-opacity:1"
         d="M 5.0483343,9.2889355 C 4.1562649,7.627389 3.7305525,7.2366482 2.8270673,6.8909765 2.5896512,7.4949494 2.3851252,8.1318125 2.3474755,8.9355519 2.5936504,10.398844 2.9502634,10.782624 3.2561757,11.055852 3.3495661,10.745376 3.4726786,10.464622 3.9629426,10.551019 3.9730838,10.327037 3.9799857,9.7575367 4.3163259,9.6423188 4.5603287,9.0714048 4.8043315,9.3003353 5.0483343,9.2889355 Z"
         id="path1693"
         sodipodi:nodetypes="ccccccc" />
      <path
         style="fill:none;stroke:#ffc2bb;stroke-width:0.264583px;stroke-linecap:butt;stroke-linejoin:miter;stroke-opacity:1"
         d="m 19.309879,7.2948431 c 1.231975,-0.8347093 2.512529,-1.2322088 3.811493,-1.4640168 0.742177,-0.1624957 1.41176,-0.2161008 2.019333,-0.1766917 0.451809,1.2704975 0.641987,2.540995 0.555317,3.8114925 -0.0669,0.7896109 0.02885,1.4327479 -0.807733,2.5998919"
         id="path2245"
         sodipodi:nodetypes="ccccc" />
      <path
         style="fill:#ffc2bb;fill-opacity:1;stroke:#ffc2bb;stroke-width:0.264583px;stroke-linecap:butt;stroke-linejoin:miter;stroke-opacity:1"
         d="m 21.960255,8.9607937 c 0.701928,-1.0987525 1.485834,-1.8286066 2.322234,-2.3222339 0.383354,0.8111523 0.472821,1.6712857 0.45435,2.5494088 -0.0066,0.6142141 -0.254283,1.2284284 -0.732009,1.8426424 -0.146185,-0.344556 -0.260709,-0.727105 -0.732008,-0.681525 -0.03952,-0.5940718 -0.180476,-0.9852716 -0.555317,-0.9087007 -0.06654,-0.4200919 -0.35497,-0.5295369 -0.75725,-0.4795916 z"
         id="path2527"
         sodipodi:nodetypes="ccccccc" />
      <path
         style="fill:none;stroke:#ffc2bb;stroke-width:0.264583px;stroke-linecap:butt;stroke-linejoin:miter;stroke-opacity:1"
         d="m 20.521479,7.39581 c 0.20912,-0.2643361 0.362279,-0.3048252 0.504834,-0.3029"
         id="path3420"
         sodipodi:nodetypes="cc" />
      <text
         xml:space="preserve"
         style="font-size:3.88056px;line-height:1.25;font-family:BELLABOO;-inkscape-font-specification:BELLABOO;stroke-width:0.264583"
         x="8.9242783"
         y="12.493991"
         id="text3073"><tspan
           sodipodi:role="line"
           id="tspan3071"
           style="font-size:3.88056px;stroke-width:0.264583"
           x="8.9242783"
           y="12.493991">Gferri</tspan></text>
    </g>
  </g>
</svg>
