<?xml version="1.0" encoding="UTF-8"?>
<!-- Created with Inkscape (http://www.inkscape.org/) -->
<svg width="200" height="80" inkscape:version="1.1.1 (3bf5ae0d25, 2021-09-20)" sodipodi:docname="logo.svg" version="1.1" viewBox="0 0 52.917 21.167" xmlns="http://www.w3.org/2000/svg" xmlns:inkscape="http://www.inkscape.org/namespaces/inkscape" xmlns:sodipodi="http://sodipodi.sourceforge.net/DTD/sodipodi-0.dtd">
<sodipodi:namedview bordercolor="#666666" borderopacity="1.0" inkscape:current-layer="layer1" inkscape:cx="117.53477" inkscape:cy="61.247825" inkscape:document-units="mm" inkscape:pagecheckerboard="0" inkscape:pageopacity="0.0" inkscape:pageshadow="2" inkscape:window-height="705" inkscape:window-maximized="1" inkscape:window-width="1366" inkscape:window-x="-8" inkscape:window-y="-8" inkscape:zoom="2.6205012" pagecolor="#ffffff" showgrid="false" units="px"/>
<g inkscape:groupmode="layer" inkscape:label="Camada 1">
<g transform="matrix(2.0457 0 0 2.0457 -1.5856 -9.6647)">
<g stroke="#ffc2bb" stroke-width=".26458px">
<path d="m2.297 12.066c-0.47559-0.59218-0.66447-1.4137-0.80773-2.2718-0.071677-1.3237-0.071422-2.8322 0.45435-4.1649 1.7609-0.11131 2.9144 0.26336 4.0134 0.68153 0.73101 0.35338 1.3454 0.70677 1.9436 1.0602" fill="none" sodipodi:nodetypes="ccccc"/>
<path d="m5.0483 9.2889c-0.89207-1.6615-1.3178-2.0523-2.2213-2.398-0.23742 0.60397-0.44194 1.2408-0.47959 2.0446 0.24617 1.4633 0.60279 1.8471 0.9087 2.1203 0.09339-0.31048 0.2165-0.59123 0.70677-0.50483 0.010141-0.22398 0.017043-0.79348 0.35338-0.9087 0.244-0.57091 0.48801-0.34198 0.73201-0.35338z" fill="#ffc2bb" sodipodi:nodetypes="ccccccc"/>
<path d="m19.31 7.2948c1.232-0.83471 2.5125-1.2322 3.8115-1.464 0.74218-0.1625 1.4118-0.2161 2.0193-0.17669 0.45181 1.2705 0.64199 2.541 0.55532 3.8115-0.0669 0.78961 0.02885 1.4327-0.80773 2.5999" fill="none" sodipodi:nodetypes="ccccc"/>
<path d="m21.96 8.9608c0.70193-1.0988 1.4858-1.8286 2.3222-2.3222 0.38335 0.81115 0.47282 1.6713 0.45435 2.5494-0.0066 0.61421-0.25428 1.2284-0.73201 1.8426-0.14618-0.34456-0.26071-0.7271-0.73201-0.68152-0.03952-0.59407-0.18048-0.98527-0.55532-0.9087-0.06654-0.42009-0.35497-0.52954-0.75725-0.47959z" fill="#ffc2bb" sodipodi:nodetypes="ccccccc"/>
<path d="m20.521 7.3958c0.20912-0.26434 0.36228-0.30483 0.50483-0.3029" fill="none" sodipodi:nodetypes="cc"/>
</g>
<text x="8.9242783" y="12.493991" font-family="BELLABOO" font-size="3.8806px" stroke-width=".26458" style="line-height:1.25" xml:space="preserve"><tspan x="8.9242783" y="12.493991" font-size="3.8806px" stroke-width=".26458" sodipodi:role="line">Gferri</tspan></text>
</g>
</g>
</svg>
