<?xml version="1.0" encoding="UTF-8"?>
<!-- Created with Inkscape (http://www.inkscape.org/) -->
<svg width="200" height="80" inkscape:version="1.1.1 (3bf5ae0d25, 2021-09-20)" sodipodi:docname="logo2.svg" version="1.1" viewBox="0 0 52.917 21.167" xmlns="http://www.w3.org/2000/svg" xmlns:inkscape="http://www.inkscape.org/namespaces/inkscape" xmlns:sodipodi="http://sodipodi.sourceforge.net/DTD/sodipodi-0.dtd">
<sodipodi:namedview bordercolor="#666666" borderopacity="1.0" inkscape:current-layer="layer1" inkscape:cx="98.072842" inkscape:cy="61.247825" inkscape:document-units="mm" inkscape:pagecheckerboard="0" inkscape:pageopacity="0.0" inkscape:pageshadow="2" inkscape:window-height="705" inkscape:window-maximized="1" inkscape:window-width="1366" inkscape:window-x="-8" inkscape:window-y="-8" inkscape:zoom="2.6205012" pagecolor="#ffffff" showgrid="false" units="px"/>
<g inkscape:groupmode="layer" inkscape:label="Camada 1">
<g stroke="#ffc2bb" stroke-width=".54125px">
<path d="m3.1133 15.017c-0.9729-1.2114-1.3593-2.892-1.6524-4.6473-0.14663-2.7079-0.14611-5.7937 0.92945-8.52 3.6023-0.22771 5.9618 0.53874 8.2101 1.3942 1.4954 0.72291 2.7522 1.4458 3.976 2.1687" fill="none" sodipodi:nodetypes="ccccc"/>
<path d="m8.7416 9.3374c-1.8249-3.399-2.6957-4.1983-4.544-4.9054-0.48568 1.2355-0.90407 2.5383-0.98109 4.1825 0.50359 2.9934 1.2331 3.7785 1.8589 4.3374 0.19105-0.63513 0.44289-1.2095 1.4458-1.0327 0.020746-0.45819 0.034864-1.6232 0.72291-1.8589 0.49915-1.1679 0.9983-0.69959 1.4974-0.72291z" fill="#ffc2bb" sodipodi:nodetypes="ccccccc"/>
<path d="m37.916 5.2581c2.5202-1.7075 5.1398-2.5207 7.7971-2.9949 1.5182-0.33241 2.888-0.44207 4.1309-0.36145 0.92425 2.599 1.3133 5.198 1.136 7.7971-0.13686 1.6153 0.05902 2.9309-1.6524 5.3185" fill="none" sodipodi:nodetypes="ccccc"/>
<path d="m43.338 8.6661c1.4359-2.2477 3.0395-3.7407 4.7505-4.7505 0.78422 1.6594 0.96724 3.4189 0.92945 5.2153-0.0135 1.2565-0.52018 2.513-1.4974 3.7694-0.29905-0.70485-0.53332-1.4874-1.4974-1.3942-0.080845-1.2153-0.36919-2.0155-1.136-1.8589-0.13612-0.85937-0.72615-1.0833-1.5491-0.98109z" fill="#ffc2bb" sodipodi:nodetypes="ccccccc"/>
<path d="m40.395 5.4647c0.42779-0.54074 0.7411-0.62357 1.0327-0.61963" fill="none" sodipodi:nodetypes="cc"/>
</g>
<text x="16.670507" y="15.893855" fill="#fdfd96" font-family="BELLABOO" font-size="7.9384px" stroke-width=".54125" style="line-height:1.25" xml:space="preserve"><tspan x="16.670507" y="15.893855" fill="#fdfd96" font-size="7.9384px" stroke-width=".54125" sodipodi:role="line">Gferri</tspan></text>
</g>
</svg>
